<svg width="38" height="38" viewBox="0 0 38 38" fill="none" xmlns="http://www.w3.org/2000/svg">
<g clip-path="url(#clip0_565_4)">
<path d="M36.3688 4.74368C34.8546 5.81178 33.178 6.62871 31.4037 7.163C30.4514 6.068 29.1857 5.29189 27.7779 4.93964C26.3701 4.58739 24.8881 4.676 23.5323 5.19348C22.1766 5.71095 21.0124 6.63233 20.1973 7.833C19.3823 9.03367 18.9556 10.4557 18.975 11.9067V13.488C16.1962 13.5601 13.4427 12.9438 10.9597 11.694C8.47672 10.4442 6.34136 8.59978 4.7438 6.32493C4.7438 6.32493 -1.5812 20.5562 12.65 26.8812C9.39351 29.0917 5.51412 30.2001 1.5813 30.0437C15.8125 37.9499 33.2063 30.0437 33.2063 11.8593C33.2048 11.4189 33.1625 10.9795 33.0798 10.5469C34.6936 8.95533 35.8325 6.94591 36.3688 4.74368V4.74368Z" stroke="white" stroke-width="2" stroke-linecap="round" stroke-linejoin="round"/>
</g>
<defs>
<clipPath id="clip0_565_4">
<rect width="37.95" height="37.95" fill="white"/>
</clipPath>
</defs>
</svg>
